<svg xmlns="http://www.w3.org/2000/svg" width="960" height="540" viewBox="0 0 960 540"><rect x="0" y="0" width="960" height="540" fill="#DDE840"/><circle cx="734.05" cy="145.8" r="91.8" fill="#FF6B3D"/><rect x="-10" y="281.07" width="117.97" height="258.93" fill="#282927"/><rect x="13.59" y="295.07" width="21.23" height="8" fill="#DDE840" fill-opacity="0.8"/><rect x="13.59" y="317.07" width="21.23" height="8" fill="#DDE840" fill-opacity="0.8"/><rect x="13.59" y="339.07" width="21.23" height="8" fill="#DDE840" fill-opacity="0.8"/><rect x="13.59" y="361.07" width="21.23" height="8" fill="#DDE840" fill-opacity="0.8"/><rect x="13.59" y="383.07" width="21.23" height="8" fill="#DDE840" fill-opacity="0.8"/><rect x="13.59" y="405.07" width="21.23" height="8" fill="#DDE840" fill-opacity="0.8"/><rect x="13.59" y="427.07" width="21.23" height="8" fill="#DDE840" fill-opacity="0.8"/><rect x="13.59" y="449.07" width="21.23" height="8" fill="#DDE840" fill-opacity="0.8"/><rect x="13.59" y="471.07" width="21.23" height="8" fill="#DDE840" fill-opacity="0.8"/><rect x="13.59" y="493.07" width="21.23" height="8" fill="#DDE840" fill-opacity="0.8"/><rect x="13.59" y="515.07" width="21.23" height="8" fill="#DDE840" fill-opacity="0.8"/><rect x="113.97" y="240.94" width="91.75" height="299.06" fill="#282927"/><rect x="132.32" y="254.94" width="16.51" height="8" fill="#DDE840" fill-opacity="0.8"/><rect x="132.32" y="276.94" width="16.51" height="8" fill="#DDE840" fill-opacity="0.8"/><rect x="132.32" y="298.94" width="16.51" height="8" fill="#DDE840" fill-opacity="0.8"/><rect x="132.32" y="320.94" width="16.51" height="8" fill="#DDE840" fill-opacity="0.8"/><rect x="132.32" y="342.94" width="16.51" height="8" fill="#DDE840" fill-opacity="0.8"/><rect x="132.32" y="364.94" width="16.51" height="8" fill="#DDE840" fill-opacity="0.8"/><rect x="132.32" y="386.94" width="16.51" height="8" fill="#DDE840" fill-opacity="0.8"/><rect x="132.32" y="408.94" width="16.51" height="8" fill="#DDE840" fill-opacity="0.8"/><rect x="132.32" y="430.94" width="16.51" height="8" fill="#DDE840" fill-opacity="0.8"/><rect x="132.32" y="452.94" width="16.51" height="8" fill="#DDE840" fill-opacity="0.8"/><rect x="132.32" y="474.94" width="16.51" height="8" fill="#DDE840" fill-opacity="0.8"/><rect x="132.32" y="496.94" width="16.51" height="8" fill="#DDE840" fill-opacity="0.8"/><rect x="132.32" y="518.94" width="16.51" height="8" fill="#DDE840" fill-opacity="0.8"/><rect x="211.71" y="298.94" width="78.16" height="241.06" fill="#282927"/><rect x="227.35" y="312.94" width="14.07" height="8" fill="#DDE840" fill-opacity="0.8"/><rect x="227.35" y="334.94" width="14.07" height="8" fill="#DDE840" fill-opacity="0.8"/><rect x="227.35" y="356.94" width="14.07" height="8" fill="#DDE840" fill-opacity="0.8"/><rect x="227.35" y="378.94" width="14.07" height="8" fill="#DDE840" fill-opacity="0.8"/><rect x="227.35" y="400.94" width="14.07" height="8" fill="#DDE840" fill-opacity="0.8"/><rect x="227.35" y="422.94" width="14.07" height="8" fill="#DDE840" fill-opacity="0.8"/><rect x="227.35" y="444.94" width="14.07" height="8" fill="#DDE840" fill-opacity="0.8"/><rect x="227.35" y="466.94" width="14.07" height="8" fill="#DDE840" fill-opacity="0.8"/><rect x="227.35" y="488.94" width="14.07" height="8" fill="#DDE840" fill-opacity="0.8"/><rect x="227.35" y="510.94" width="14.07" height="8" fill="#DDE840" fill-opacity="0.8"/><rect x="295.87" y="342.56" width="109.19" height="197.44" fill="#FFFFFF"/><rect x="317.71" y="356.56" width="19.65" height="8" fill="#DDE840" fill-opacity="0.8"/><rect x="317.71" y="378.56" width="19.65" height="8" fill="#DDE840" fill-opacity="0.8"/><rect x="317.71" y="400.56" width="19.65" height="8" fill="#DDE840" fill-opacity="0.8"/><rect x="317.71" y="422.56" width="19.65" height="8" fill="#DDE840" fill-opacity="0.8"/><rect x="317.71" y="444.56" width="19.65" height="8" fill="#DDE840" fill-opacity="0.8"/><rect x="317.71" y="466.56" width="19.65" height="8" fill="#DDE840" fill-opacity="0.8"/><rect x="317.71" y="488.56" width="19.65" height="8" fill="#DDE840" fill-opacity="0.8"/><rect x="317.71" y="510.56" width="19.65" height="8" fill="#DDE840" fill-opacity="0.8"/><rect x="411.06" y="259.31" width="63.24" height="280.69" fill="#FFFFFF"/><rect x="423.7" y="273.31" width="11.38" height="8" fill="#DDE840" fill-opacity="0.8"/><rect x="423.7" y="295.31" width="11.38" height="8" fill="#DDE840" fill-opacity="0.8"/><rect x="423.7" y="317.31" width="11.38" height="8" fill="#DDE840" fill-opacity="0.8"/><rect x="423.7" y="339.31" width="11.38" height="8" fill="#DDE840" fill-opacity="0.8"/><rect x="423.7" y="361.31" width="11.38" height="8" fill="#DDE840" fill-opacity="0.8"/><rect x="423.7" y="383.31" width="11.38" height="8" fill="#DDE840" fill-opacity="0.8"/><rect x="423.7" y="405.31" width="11.38" height="8" fill="#DDE840" fill-opacity="0.8"/><rect x="423.7" y="427.31" width="11.38" height="8" fill="#DDE840" fill-opacity="0.8"/><rect x="423.7" y="449.31" width="11.38" height="8" fill="#DDE840" fill-opacity="0.8"/><rect x="423.7" y="471.31" width="11.38" height="8" fill="#DDE840" fill-opacity="0.8"/><rect x="423.7" y="493.31" width="11.38" height="8" fill="#DDE840" fill-opacity="0.8"/><rect x="423.7" y="515.31" width="11.38" height="8" fill="#DDE840" fill-opacity="0.8"/><rect x="480.29" y="206.68" width="49.11" height="333.32" fill="#FFFFFF"/><rect x="490.12" y="220.68" width="8.84" height="8" fill="#DDE840" fill-opacity="0.8"/><rect x="490.12" y="242.68" width="8.84" height="8" fill="#DDE840" fill-opacity="0.8"/><rect x="490.12" y="264.68" width="8.84" height="8" fill="#DDE840" fill-opacity="0.8"/><rect x="490.12" y="286.68" width="8.84" height="8" fill="#DDE840" fill-opacity="0.8"/><rect x="490.12" y="308.68" width="8.84" height="8" fill="#DDE840" fill-opacity="0.8"/><rect x="490.12" y="330.68" width="8.84" height="8" fill="#DDE840" fill-opacity="0.8"/><rect x="490.12" y="352.68" width="8.84" height="8" fill="#DDE840" fill-opacity="0.8"/><rect x="490.12" y="374.68" width="8.84" height="8" fill="#DDE840" fill-opacity="0.8"/><rect x="490.12" y="396.68" width="8.84" height="8" fill="#DDE840" fill-opacity="0.8"/><rect x="490.12" y="418.68" width="8.84" height="8" fill="#DDE840" fill-opacity="0.8"/><rect x="490.12" y="440.68" width="8.84" height="8" fill="#DDE840" fill-opacity="0.8"/><rect x="490.12" y="462.68" width="8.84" height="8" fill="#DDE840" fill-opacity="0.8"/><rect x="490.12" y="484.68" width="8.84" height="8" fill="#DDE840" fill-opacity="0.8"/><rect x="490.12" y="506.68" width="8.84" height="8" fill="#DDE840" fill-opacity="0.8"/><rect x="535.41" y="342.17" width="98.81" height="197.83" fill="#282927"/><rect x="555.17" y="356.17" width="17.79" height="8" fill="#DDE840" fill-opacity="0.8"/><rect x="555.17" y="378.17" width="17.79" height="8" fill="#DDE840" fill-opacity="0.8"/><rect x="555.17" y="400.17" width="17.79" height="8" fill="#DDE840" fill-opacity="0.8"/><rect x="555.17" y="422.17" width="17.79" height="8" fill="#DDE840" fill-opacity="0.8"/><rect x="555.17" y="444.17" width="17.79" height="8" fill="#DDE840" fill-opacity="0.8"/><rect x="555.17" y="466.17" width="17.79" height="8" fill="#DDE840" fill-opacity="0.8"/><rect x="555.17" y="488.17" width="17.79" height="8" fill="#DDE840" fill-opacity="0.8"/><rect x="555.17" y="510.17" width="17.79" height="8" fill="#DDE840" fill-opacity="0.8"/><rect x="640.21" y="283.3" width="90.72" height="256.7" fill="#282927"/><rect x="658.36" y="297.3" width="16.33" height="8" fill="#DDE840" fill-opacity="0.8"/><rect x="658.36" y="319.3" width="16.33" height="8" fill="#DDE840" fill-opacity="0.8"/><rect x="658.36" y="341.3" width="16.33" height="8" fill="#DDE840" fill-opacity="0.8"/><rect x="658.36" y="363.3" width="16.33" height="8" fill="#DDE840" fill-opacity="0.8"/><rect x="658.36" y="385.3" width="16.33" height="8" fill="#DDE840" fill-opacity="0.8"/><rect x="658.36" y="407.3" width="16.33" height="8" fill="#DDE840" fill-opacity="0.8"/><rect x="658.36" y="429.3" width="16.33" height="8" fill="#DDE840" fill-opacity="0.8"/><rect x="658.36" y="451.3" width="16.33" height="8" fill="#DDE840" fill-opacity="0.8"/><rect x="658.36" y="473.3" width="16.33" height="8" fill="#DDE840" fill-opacity="0.8"/><rect x="658.36" y="495.3" width="16.33" height="8" fill="#DDE840" fill-opacity="0.8"/><rect x="658.36" y="517.3" width="16.33" height="8" fill="#DDE840" fill-opacity="0.8"/><rect x="736.94" y="187.54" width="56.86" height="352.46" fill="#FFFFFF"/><rect x="748.31" y="201.54" width="10.24" height="8" fill="#DDE840" fill-opacity="0.8"/><rect x="748.31" y="223.54" width="10.24" height="8" fill="#DDE840" fill-opacity="0.8"/><rect x="748.31" y="245.54" width="10.24" height="8" fill="#DDE840" fill-opacity="0.8"/><rect x="748.31" y="267.54" width="10.24" height="8" fill="#DDE840" fill-opacity="0.8"/><rect x="748.31" y="289.54" width="10.24" height="8" fill="#DDE840" fill-opacity="0.8"/><rect x="748.31" y="311.54" width="10.24" height="8" fill="#DDE840" fill-opacity="0.8"/><rect x="748.31" y="333.54" width="10.24" height="8" fill="#DDE840" fill-opacity="0.8"/><rect x="748.31" y="355.54" width="10.24" height="8" fill="#DDE840" fill-opacity="0.8"/><rect x="748.31" y="377.54" width="10.24" height="8" fill="#DDE840" fill-opacity="0.8"/><rect x="748.31" y="399.54" width="10.24" height="8" fill="#DDE840" fill-opacity="0.8"/><rect x="748.31" y="421.54" width="10.24" height="8" fill="#DDE840" fill-opacity="0.8"/><rect x="748.31" y="443.54" width="10.24" height="8" fill="#DDE840" fill-opacity="0.8"/><rect x="748.31" y="465.54" width="10.24" height="8" fill="#DDE840" fill-opacity="0.8"/><rect x="748.31" y="487.54" width="10.24" height="8" fill="#DDE840" fill-opacity="0.8"/><rect x="748.31" y="509.54" width="10.24" height="8" fill="#DDE840" fill-opacity="0.8"/><rect x="799.8" y="212.41" width="106.03" height="327.59" fill="#282927"/><rect x="821.01" y="226.41" width="19.08" height="8" fill="#DDE840" fill-opacity="0.8"/><rect x="821.01" y="248.41" width="19.08" height="8" fill="#DDE840" fill-opacity="0.8"/><rect x="821.01" y="270.41" width="19.08" height="8" fill="#DDE840" fill-opacity="0.8"/><rect x="821.01" y="292.41" width="19.08" height="8" fill="#DDE840" fill-opacity="0.8"/><rect x="821.01" y="314.41" width="19.08" height="8" fill="#DDE840" fill-opacity="0.8"/><rect x="821.01" y="336.41" width="19.08" height="8" fill="#DDE840" fill-opacity="0.8"/><rect x="821.01" y="358.41" width="19.08" height="8" fill="#DDE840" fill-opacity="0.8"/><rect x="821.01" y="380.41" width="19.08" height="8" fill="#DDE840" fill-opacity="0.8"/><rect x="821.01" y="402.41" width="19.08" height="8" fill="#DDE840" fill-opacity="0.8"/><rect x="821.01" y="424.41" width="19.08" height="8" fill="#DDE840" fill-opacity="0.8"/><rect x="821.01" y="446.41" width="19.08" height="8" fill="#DDE840" fill-opacity="0.8"/><rect x="821.01" y="468.41" width="19.08" height="8" fill="#DDE840" fill-opacity="0.8"/><rect x="821.01" y="490.41" width="19.08" height="8" fill="#DDE840" fill-opacity="0.8"/><rect x="821.01" y="512.41" width="19.08" height="8" fill="#DDE840" fill-opacity="0.8"/><rect x="911.83" y="245.41" width="116.61" height="294.59" fill="#282927"/><rect x="935.15" y="259.41" width="20.99" height="8" fill="#DDE840" fill-opacity="0.8"/><rect x="935.15" y="281.41" width="20.99" height="8" fill="#DDE840" fill-opacity="0.8"/><rect x="935.15" y="303.41" width="20.99" height="8" fill="#DDE840" fill-opacity="0.8"/><rect x="935.15" y="325.41" width="20.99" height="8" fill="#DDE840" fill-opacity="0.8"/><rect x="935.15" y="347.41" width="20.99" height="8" fill="#DDE840" fill-opacity="0.8"/><rect x="935.15" y="369.41" width="20.99" height="8" fill="#DDE840" fill-opacity="0.8"/><rect x="935.15" y="391.41" width="20.99" height="8" fill="#DDE840" fill-opacity="0.8"/><rect x="935.15" y="413.41" width="20.99" height="8" fill="#DDE840" fill-opacity="0.8"/><rect x="935.15" y="435.41" width="20.99" height="8" fill="#DDE840" fill-opacity="0.8"/><rect x="935.15" y="457.41" width="20.99" height="8" fill="#DDE840" fill-opacity="0.8"/><rect x="935.15" y="479.41" width="20.99" height="8" fill="#DDE840" fill-opacity="0.8"/><rect x="935.15" y="501.41" width="20.99" height="8" fill="#DDE840" fill-opacity="0.8"/></svg>
